<svg xmlns="http://www.w3.org/2000/svg" xmlns:xlink="http://www.w3.org/1999/xlink"><symbol id="sprite-logo-tablet" fill="none" viewBox="0 0 110 22"><path fill="#fff" d="M95.6.3h3.06l3.53 14.65 3.52-14.64h2.7l-4.93 21.4h-2.6zm-1.24 0h2.92l.45 14.12v7.29h-3.37zm12.71 0h2.93v21.4h-3.35v-7.28zm-23.36 0 2.64 9.65 2.62-9.64h3.79l-4.66 13.62v7.78h-3.51v-7.78l-4.66-13.62zm-4.22 10.16v8.82q-.37.49-1.09 1.13-.7.63-1.84 1.12-1.13.47-2.76.47-1.44 0-2.61-.56t-2.01-1.69q-.84-1.15-1.28-2.85-.44-1.72-.44-4.07v-3.64q0-2.33.42-4.05.43-1.73 1.24-2.88.8-1.14 1.92-1.7 1.13-.56 2.55-.56 1.95 0 3.2.8 1.26.82 1.9 2.4.65 1.6.78 3.9h-3.36q-.08-1.35-.37-2.12-.27-.76-.77-1.09t-1.3-.33q-.69 0-1.2.3t-.86.97-.5 1.74q-.17 1.06-.17 2.59v3.67q0 1.51.19 2.59t.56 1.74.95.99q.58.3 1.36.3.63 0 1.01-.17.39-.16.61-.34.24-.19.4-.29v-3.94h-2.5v-3.25zm-26.09-10.15h5.55q1.74 0 2.96.73 1.23.74 1.88 2.18t.66 3.55q0 1.74-.38 2.97-.38 1.22-1.08 2.05a5 5 0 0 1-1.68 1.29l-1.06.78h-4.5l-.02-3.57h3.13q.71 0 1.18-.39.47-.4.7-1.1.24-.72.24-1.67 0-1.02-.22-1.74-.2-.73-.65-1.11-.44-.4-1.16-.4h-2.07v17.83h-3.48zm7.86 21.4-3.17-9.54 3.65-.02 3.24 9.35v.2zm-10.76-3.56v3.56h-7.52v-3.56zm-6.44-17.84v21.4h-3.49v-21.4zm5.43 8.67v3.45h-6.51v-3.45zm.99-8.67v3.57h-7.5v-3.57zm-17 13.86h-3.54v-3.57h3.54q.74 0 1.2-.42.48-.4.7-1.13a6 6 0 0 0 .2-1.64 6 6 0 0 0-.22-1.72q-.21-.81-.67-1.31t-1.2-.5h-2.43v17.83h-3.47v-21.4h5.9q1.74 0 3 .91t1.93 2.51.68 3.65q0 2.07-.68 3.6-.67 1.51-1.93 2.35t-3 .84m-12.04-13.86h3.47v14.7q0 2.46-.73 4.02-.73 1.54-2.01 2.26-1.29.71-2.94.71-1.67 0-2.96-.7-1.3-.73-2.02-2.27-.72-1.56-.72-4.03v-14.7h3.48v14.7q0 1.4.25 2.15.26.75.74 1.03.5.26 1.23.26.74 0 1.21-.26.49-.28.74-1.03.26-.75.26-2.14zm-13.6 15.77q0-.58-.09-1.05a2 2 0 0 0-.35-.86q-.26-.4-.78-.8a9 9 0 0 0-1.3-.82 29 29 0 0 1-1.87-1.06 9 9 0 0 1-1.63-1.32 6 6 0 0 1-1.15-1.76q-.42-1.03-.42-2.41 0-1.36.4-2.46t1.14-1.88a5 5 0 0 1 1.72-1.22q1-.42 2.22-.42 1.67 0 2.88.85 1.23.85 1.9 2.33.67 1.49.67 3.41h-3.47q0-.9-.22-1.6-.2-.7-.65-1.1t-1.17-.4q-.66 0-1.1.34a2 2 0 0 0-.64.9 4 4 0 0 0-.2 1.26q0 .53.2.96.21.4.58.75.37.32.87.63.5.3 1.11.6 1.18.57 2.09 1.26a7 7 0 0 1 1.5 1.53q.61.84.92 1.9t.31 2.4-.38 2.45a5 5 0 0 1-1.08 1.88q-.72.78-1.73 1.2-1 .43-2.23.43-1.2 0-2.27-.41a5 5 0 0 1-1.9-1.28q-.8-.87-1.27-2.19-.46-1.34-.46-3.16h3.48q0 .97.16 1.66.15.68.47 1.09.32.4.79.6t1.08.2q.7 0 1.1-.33.41-.32.59-.87.18-.54.18-1.23"/></symbol><use xlink:href="#sprite-logo-tablet" width="110" height="22"/><view id="sprite-logo-tablet-view" viewBox="0 0 110 22"/><symbol id="sprite-logo" fill="none" viewBox="0 0 110 22"><path fill="#fff" d="M95.6.3h3.06l3.53 14.65 3.52-14.64h2.7l-4.93 21.4h-2.6zm-1.24 0h2.92l.45 14.12v7.29h-3.37zm12.71 0h2.93v21.4h-3.35v-7.28zm-23.36 0 2.64 9.65 2.62-9.64h3.79l-4.66 13.62v7.78h-3.51v-7.78l-4.66-13.62zm-4.22 10.16v8.82q-.37.49-1.09 1.13-.7.63-1.84 1.12-1.13.47-2.76.47-1.44 0-2.61-.56t-2.01-1.69q-.84-1.15-1.28-2.85-.44-1.72-.44-4.07v-3.64q0-2.33.42-4.05.43-1.73 1.24-2.88.8-1.14 1.92-1.7 1.13-.56 2.55-.56 1.95 0 3.2.8 1.26.82 1.9 2.4.65 1.6.78 3.9h-3.36q-.08-1.35-.37-2.12-.27-.76-.77-1.09t-1.3-.33q-.69 0-1.2.3t-.86.97-.5 1.74q-.17 1.06-.17 2.59v3.67q0 1.51.19 2.59t.56 1.74.95.99q.58.3 1.36.3.63 0 1.01-.17.39-.16.61-.34.24-.19.4-.29v-3.94h-2.5v-3.25zm-26.09-10.15h5.55q1.74 0 2.96.73 1.23.74 1.88 2.18t.66 3.55q0 1.74-.38 2.97-.38 1.22-1.08 2.05a5 5 0 0 1-1.68 1.29l-1.06.78h-4.5l-.02-3.57h3.13q.71 0 1.18-.39.47-.4.7-1.1.24-.72.24-1.67 0-1.02-.22-1.74-.2-.73-.65-1.11-.44-.4-1.16-.4h-2.07v17.83h-3.48zm7.86 21.4-3.17-9.54 3.65-.02 3.24 9.35v.2zm-10.76-3.56v3.56h-7.52v-3.56zm-6.44-17.84v21.4h-3.49v-21.4zm5.43 8.67v3.45h-6.51v-3.45zm.99-8.67v3.57h-7.5v-3.57zm-17 13.86h-3.54v-3.57h3.54q.74 0 1.2-.42.48-.4.7-1.13a6 6 0 0 0 .2-1.64 6 6 0 0 0-.22-1.72q-.21-.81-.67-1.31t-1.2-.5h-2.43v17.83h-3.47v-21.4h5.9q1.74 0 3 .91t1.93 2.51.68 3.65q0 2.07-.68 3.6-.67 1.51-1.93 2.35t-3 .84m-12.04-13.86h3.47v14.7q0 2.46-.73 4.02-.73 1.54-2.01 2.26-1.29.71-2.94.71-1.67 0-2.96-.7-1.3-.73-2.02-2.27-.72-1.56-.72-4.03v-14.7h3.48v14.7q0 1.4.25 2.15.26.75.74 1.03.5.26 1.23.26.74 0 1.21-.26.49-.28.74-1.03.26-.75.26-2.14zm-13.6 15.77q0-.58-.09-1.05a2 2 0 0 0-.35-.86q-.26-.4-.78-.8a9 9 0 0 0-1.3-.82 29 29 0 0 1-1.87-1.06 9 9 0 0 1-1.63-1.32 6 6 0 0 1-1.15-1.76q-.42-1.03-.42-2.41 0-1.36.4-2.46t1.14-1.88a5 5 0 0 1 1.72-1.22q1-.42 2.22-.42 1.67 0 2.88.85 1.23.85 1.9 2.33.67 1.49.67 3.41h-3.47q0-.9-.22-1.6-.2-.7-.65-1.1t-1.17-.4q-.66 0-1.1.34a2 2 0 0 0-.64.9 4 4 0 0 0-.2 1.26q0 .53.2.96.21.4.58.75.37.32.87.63.5.3 1.11.6 1.18.57 2.09 1.26a7 7 0 0 1 1.5 1.53q.61.84.92 1.9t.31 2.4-.38 2.45a5 5 0 0 1-1.08 1.88q-.72.78-1.73 1.2-1 .43-2.23.43-1.2 0-2.27-.41a5 5 0 0 1-1.9-1.28q-.8-.87-1.27-2.19-.46-1.34-.46-3.16h3.48q0 .97.16 1.66.15.68.47 1.09.32.4.79.6t1.08.2q.7 0 1.1-.33.41-.32.59-.87.18-.54.18-1.23"/></symbol><use xlink:href="#sprite-logo" width="110" height="22" y="22"/><view id="sprite-logo-view" viewBox="0 22 110 22"/><symbol id="sprite-odnoklassniki" fill="none" viewBox="0 0 14 22"><path fill="#030A1A" d="M7 3.33c1.32 0 2.4 1.05 2.4 2.35s-1.08 2.35-2.4 2.35-2.4-1.06-2.4-2.35c0-1.3 1.08-2.35 2.4-2.35m0 8.02c3.2 0 5.8-2.54 5.8-5.67s-2.6-5.68-5.8-5.68-5.79 2.55-5.79 5.68 2.6 5.68 5.79 5.68m2.34 4.63a11 11 0 0 0 3.37-1.37 1.64 1.64 0 0 0 .53-2.3 1.7 1.7 0 0 0-2.34-.52 7.5 7.5 0 0 1-7.8 0 1.7 1.7 0 0 0-2.34.53 1.64 1.64 0 0 0 .53 2.29 11 11 0 0 0 3.37 1.37l-3.24 3.17a1.64 1.64 0 0 0 0 2.35 1.73 1.73 0 0 0 2.4 0l3.18-3.12 3.18 3.12a1.7 1.7 0 0 0 2.4 0 1.64 1.64 0 0 0 0-2.35z"/></symbol><use xlink:href="#sprite-odnoklassniki" width="14" height="22" y="44"/><view id="sprite-odnoklassniki-view" viewBox="0 44 14 22"/><symbol id="sprite-play" fill="none" viewBox="0 0 14 16"><path fill="currentColor" d="m13.5 8-13 7.5v-15z"/></symbol><use xlink:href="#sprite-play" width="14" height="16" y="66"/><view id="sprite-play-view" viewBox="0 66 14 16"/><symbol id="sprite-reddit" fill="none" viewBox="0 0 20 22"><path fill="#030A1A" d="M11.95.5a2.1 2.1 0 0 0-1.63.83c-.39.5-.6 1.1-.76 1.73a15 15 0 0 0-.34 3.17c-1.8.12-3.43.68-4.79 1.55a2.8 2.8 0 0 0-1.85-.75 2.4 2.4 0 0 0-1.92 1 3.8 3.8 0 0 0 .27 4.64 7 7 0 0 0-.12 1.18c0 4.23 4.11 7.65 9.19 7.65s9.2-3.43 9.2-7.65q-.01-.6-.13-1.18a3.8 3.8 0 0 0 .27-4.63 2.4 2.4 0 0 0-1.92-1.01c-.64 0-1.3.26-1.85.75a10 10 0 0 0-4.77-1.56c.03-.93.1-1.9.27-2.64q.17-.7.39-.98c.22-.28.25-.26.49-.26.52 0 .58.18.9.6.15.22.34.5.63.75.29.27.72.5 1.19.5v-1.85c-.13 0-.16 0-.24-.09q-.13-.13-.4-.51c-.35-.5-1.05-1.24-2.08-1.24m5.06.17c-1.22 0-2.2 1.16-2.2 2.6 0 1.42.98 2.58 2.2 2.58s2.18-1.16 2.18-2.59-.98-2.59-2.19-2.59m0 .92c.78 0 1.41.75 1.41 1.67s-.63 1.67-1.4 1.67-1.42-.75-1.42-1.67.64-1.67 1.41-1.67m-7 6.07c4.3 0 7.95 2.84 7.95 6.19s-3.64 6.18-7.95 6.18-7.95-2.83-7.95-6.18 3.64-6.19 7.95-6.19m-7.4.84q.34 0 .66.17-1.18 1.05-1.82 2.42c-.3-.72-.21-1.6.15-2.07a1.2 1.2 0 0 1 1.02-.52m14.78 0q.61 0 1.02.51c.36.48.44 1.37.15 2.08a8 8 0 0 0-1.82-2.42 2 2 0 0 1 .65-.17m-10.5 2.3c-.78 0-1.41.75-1.41 1.67s.63 1.67 1.4 1.67 1.42-.75 1.42-1.67-.63-1.67-1.41-1.67m6.22 0c-.78 0-1.4.75-1.4 1.67s.62 1.67 1.4 1.67 1.41-.75 1.41-1.67-.63-1.67-1.4-1.67m-6.99 5.67c.5 1.2 2.03 2.38 3.87 2.38s3.4-1.17 3.89-2.38c-.9.68-2.32 1.15-3.89 1.15s-2.97-.47-3.87-1.15"/></symbol><use xlink:href="#sprite-reddit" width="20" height="22" y="82"/><view id="sprite-reddit-view" viewBox="0 82 20 22"/><symbol id="sprite-ruble" fill="none" viewBox="0 0 14 20"><path fill="#102654" fill-rule="evenodd" d="M1.87 13.49v-5.4h2.8v5.4h5.13v2.85h-5.13v3.66h-2.8v-3.66h-1.87v-2.85z" clip-rule="evenodd"/><path fill="#102654" fill-rule="evenodd" d="M8.63 2.86h-3.96v5.24h3.96a2.6 2.6 0 0 0 2.57-2.62 2.6 2.6 0 0 0-2.57-2.62m-6.76-2.86v10.95h6.76c2.97 0 5.37-2.45 5.37-5.47s-2.4-5.48-5.37-5.48z" clip-rule="evenodd"/><path fill="#102654" d="M1.87 8.1h-1.87v2.85h1.87z"/></symbol><use xlink:href="#sprite-ruble" width="14" height="20" y="104"/><view id="sprite-ruble-view" viewBox="0 104 14 20"/><symbol id="sprite-user" fill="none" viewBox="0 0 18 20"><path stroke="#163152" stroke-linecap="square" stroke-linejoin="round" d="M15.67 19h-13.34c-.73 0-1.33-.55-1.33-1.23a4.9 4.9 0 0 1 3.43-4.58l.41-.14a12.8 12.8 0 0 1 8.32 0l.4.14a4.9 4.9 0 0 1 3.44 4.58c0 .68-.6 1.23-1.33 1.23Zm-8.7-9.6a4.8 4.8 0 0 0 4.06 0 4.2 4.2 0 0 0 2.32-2.8l.08-.31a4.1 4.1 0 0 0-.84-3.54l-.12-.14c-.82-1.01-2.1-1.61-3.47-1.61s-2.65.6-3.47 1.6l-.12.15a4.1 4.1 0 0 0-.84 3.54l.08.32a4.2 4.2 0 0 0 2.32 2.8Z"/></symbol><use xlink:href="#sprite-user" width="18" height="20" y="124"/><view id="sprite-user-view" viewBox="0 124 18 20"/><symbol id="sprite-vk" fill="none" viewBox="0 0 22 12"><path fill="#030A1A" d="M21.8 10.7c-.06-.1-.42-.85-2.18-2.41-1.84-1.64-1.6-1.37.62-4.2 1.36-1.72 1.9-2.77 1.73-3.22-.16-.43-1.16-.32-1.16-.32l-3.3.02s-.25-.03-.43.07-.3.34-.3.34-.52 1.33-1.22 2.47c-1.47 2.39-2.06 2.51-2.3 2.37-.56-.35-.42-1.4-.42-2.14 0-2.31.37-3.28-.72-3.53a6 6 0 0 0-1.54-.15c-1.18-.01-2.18 0-2.74.27-.38.18-.67.57-.5.6.23.02.72.12.98.46.34.44.33 1.43.33 1.43s.2 2.73-.46 3.07c-.44.23-1.06-.24-2.37-2.41-.67-1.11-1.18-2.34-1.18-2.34s-.1-.23-.27-.35c-.21-.15-.51-.2-.51-.2l-3.14.02s-.47.01-.65.2c-.15.18-.01.54-.01.54s2.46 5.5 5.25 8.28c2.55 2.55 5.46 2.38 5.46 2.38h1.3s.4-.04.6-.25.19-.55.19-.55-.03-1.69.8-1.94c.8-.24 1.84 1.63 2.93 2.35.83.55 1.47.43 1.47.43l2.94-.04s1.53-.1.8-1.25"/></symbol><use xlink:href="#sprite-vk" width="22" height="12" y="144"/><view id="sprite-vk-view" viewBox="0 144 22 12"/></svg>